<svg width="82" height="69" viewBox="0 0 82 69" fill="none" xmlns="http://www.w3.org/2000/svg">
<path d="M76.5286 45.8324H5.36029C2.8336 45.8324 0.833313 47.8034 0.833313 50.07V53.5192C0.833313 55.7858 2.8336 57.6582 5.36029 57.6582H6.41307V58.6437C6.41307 64.0639 11.1506 68.4 16.8356 68.4H65.0532C70.8435 68.4 75.4758 63.9653 75.4758 58.6437V57.6582H76.5286C78.95 57.6582 81.0555 55.7858 81.0555 53.4206V49.9714C81.0555 47.8034 79.0553 45.8324 76.5286 45.8324ZM72.4227 58.6437C72.4227 62.3886 69.1591 65.4436 65.1585 65.4436H16.7304C12.7298 65.4436 9.46615 62.3886 9.46615 58.6437V57.6582H72.4227V58.6437ZM77.8972 53.4206C77.8972 54.1105 77.2655 54.7018 76.5286 54.7018H5.36029C4.62334 54.7018 3.99167 54.1105 3.99167 53.4206V49.9714C3.99167 49.3801 4.62334 48.7889 5.36029 48.7889H76.6338C77.3708 48.7889 78.0025 49.3801 78.0025 50.07V53.4206H77.8972Z" fill="#81B3D2"/>
<path d="M17.8885 37.8496L23.5735 41.7915L29.3639 37.8496L35.1542 41.7915L40.9445 37.8496L46.6295 41.7915L52.4198 37.8496L58.2102 41.7915L64.0005 37.8496L69.7908 41.7915L76.4233 37.1597L74.6336 34.7946L69.7908 38.0467L64.0005 34.1047L58.2102 38.0467L52.4198 34.1047L46.6295 38.0467L40.9445 34.1047L35.1542 38.0467L29.3639 34.1047L23.5735 38.0467L17.8885 34.1047L12.0982 38.0467L7.25536 34.7946L5.36035 37.1597L12.0982 41.7915L17.8885 37.8496Z" fill="#81B3D2"/>
<path d="M75.4757 31.1486C75.4757 30.5573 75.581 28.5864 75.4757 28.1922C74.7388 12.8186 59.5787 0.5 40.9444 0.5C22.3101 0.5 7.04469 12.8186 6.30774 28.1922C6.30774 28.5864 6.30774 30.5573 6.30774 31.1486H75.4757ZM40.9444 3.45646C57.7889 3.45646 71.6857 14.4939 72.3174 28.1922H9.46609C10.203 14.4939 24.0998 3.45646 40.9444 3.45646Z" fill="#81B3D2"/>
<path d="M40.9444 17.2532C42.1073 17.2532 43.05 16.3708 43.05 15.2823C43.05 14.1937 42.1073 13.3113 40.9444 13.3113C39.7816 13.3113 38.8389 14.1937 38.8389 15.2823C38.8389 16.3708 39.7816 17.2532 40.9444 17.2532Z" fill="#81B3D2"/>
<path d="M32.5221 12.424C33.685 12.424 34.6277 11.5416 34.6277 10.453C34.6277 9.36449 33.685 8.48206 32.5221 8.48206C31.3593 8.48206 30.4166 9.36449 30.4166 10.453C30.4166 11.5416 31.3593 12.424 32.5221 12.424Z" fill="#81B3D2"/>
<path d="M49.3667 12.424C50.5296 12.424 51.4723 11.5416 51.4723 10.453C51.4723 9.36449 50.5296 8.48206 49.3667 8.48206C48.2039 8.48206 47.2612 9.36449 47.2612 10.453C47.2612 11.5416 48.2039 12.424 49.3667 12.424Z" fill="#81B3D2"/>
</svg>
