<svg width="78" height="73" viewBox="0 0 78 73" fill="none" xmlns="http://www.w3.org/2000/svg">
<path d="M30.8784 65.4389H47.3768V41.6709H30.8784V65.4389ZM44.3865 62.5549H33.8688V44.5549H44.2834V62.5549H44.3865Z" fill="#81B3D2"/>
<path d="M75.3211 39.6823L77.4865 37.5939L67.2781 27.7486V0.89779H53.0482V14.0249L38.9214 0.5L0.459473 37.6934L2.62489 39.7818L10.6679 32.0249V69.616H6.64638V72.5H72.537V69.616H67.2781V31.9254L75.3211 39.6823ZM56.0385 3.88122H64.1846V24.8646L56.0385 17.0083V3.88122ZM64.2878 69.5166H13.7613V29.0414L38.9214 4.6768L64.1846 29.0414V69.5166H64.2878Z" fill="#81B3D2"/>
<path d="M31.1879 27.5491C31.1879 31.8253 34.7969 35.306 39.1277 35.306C43.5617 35.306 47.1707 31.8253 47.1707 27.5491C47.1707 23.2728 43.5617 19.8916 39.1277 19.8916C34.6938 19.8916 31.1879 23.2728 31.1879 27.5491ZM39.1277 22.5767C41.9118 22.5767 44.2835 24.7645 44.2835 27.5491C44.2835 30.2341 42.015 32.5214 39.1277 32.5214C36.3436 32.5214 33.972 30.3336 33.972 27.5491C33.972 24.864 36.3436 22.5767 39.1277 22.5767Z" fill="#81B3D2"/>
<path d="M20.9794 41.6709H17.8859V45.5493H20.9794V41.6709Z" fill="#81B3D2"/>
<path d="M27.0631 41.6709H23.9697V45.5493H27.0631V41.6709Z" fill="#81B3D2"/>
<path d="M20.9794 47.6387H17.8859V51.5171H20.9794V47.6387Z" fill="#81B3D2"/>
<path d="M27.0631 47.6387H23.9697V51.5171H27.0631V47.6387Z" fill="#81B3D2"/>
<path d="M53.8731 41.6709H50.7797V45.5493H53.8731V41.6709Z" fill="#81B3D2"/>
<path d="M60.06 41.6709H56.9666V45.5493H60.06V41.6709Z" fill="#81B3D2"/>
<path d="M53.8731 47.6387H50.7797V51.5171H53.8731V47.6387Z" fill="#81B3D2"/>
<path d="M60.06 47.6387H56.9666V51.5171H60.06V47.6387Z" fill="#81B3D2"/>
</svg>
