<svg width="67" height="76" viewBox="0 0 67 76" fill="none" xmlns="http://www.w3.org/2000/svg">
<path d="M64.016 22.6167H63.9104H38.2583C52.615 15.8189 53.7762 11.5202 53.2484 9.12098C52.0872 5.22221 47.3368 2.22316 42.9031 3.82266C37.0971 5.92199 35.5136 14.1194 33.9302 20.0175C31.9245 14.0194 30.0243 6.42183 25.485 2.52307C24.2183 1.42341 22.3181 0.323761 19.4679 0.523698C15.2453 0.923572 9.22814 5.82202 11.7617 11.3203C14.0841 16.6186 21.7903 20.0175 26.9629 22.7167H3.42211C1.73308 22.7167 0.466309 24.0163 0.466309 25.5158V36.7123C0.466309 38.3118 1.83864 39.5114 3.42211 39.5114H3.7388V75.5H63.9104V39.5114H64.016C65.705 39.5114 66.9718 38.2118 66.9718 36.7123V25.5158C66.9718 23.9163 65.5994 22.6167 64.016 22.6167ZM44.5922 6.32187C46.809 6.02196 49.7648 7.62146 50.0815 9.52085C50.5038 12.22 46.5979 14.7192 44.8033 15.8189C42.1642 17.5183 39.6306 18.418 37.2027 19.8176C38.0472 16.1188 39.8418 6.92168 44.5922 6.32187ZM20.7346 16.1188C18.4122 14.6192 13.9785 11.7202 14.0841 8.4212C14.1897 4.82234 20.1013 1.92326 23.2682 4.6224C27.2796 7.92136 29.1798 15.6189 30.6577 21.0172C27.2796 19.4177 24.1127 18.2181 20.7346 16.1188ZM26.9629 72.5009H6.80016V39.5114H26.9629V72.5009ZM26.9629 36.5123H3.63324V25.6158H26.9629V36.5123ZM37.5194 72.5009H30.0243V25.6158H37.5194V72.5009ZM60.7435 72.5009H40.6863V39.5114H60.8491V72.5009H60.7435ZM63.8049 36.5123H40.6863V25.6158H63.8049V36.5123Z" fill="#81B3D2"/>
</svg>
